<svg width="30" height="30" viewBox="0 0 30 30" fill="none" xmlns="http://www.w3.org/2000/svg">
<path d="M14.9942 27C21.5713 27 27 21.5687 27 15C27 8.43133 21.5597 3 14.9826 3C8.41711 3 3 8.43133 3 15C3 21.5687 8.42871 27 14.9942 27ZM14.9826 16.8917C12.709 16.8801 10.9459 14.9768 10.9459 12.4584C10.9227 10.0909 12.7206 8.11799 14.9826 8.11799C17.2446 8.11799 19.0193 10.0909 19.0193 12.4584C19.0193 14.9768 17.2562 16.9149 14.9826 16.8917ZM14.9826 25.0155C12.3842 25.0155 9.62349 23.9362 7.87192 22.0561C9.2059 20.06 11.8507 18.8994 14.9826 18.8994C18.0797 18.8994 20.7477 20.0368 22.0933 22.0561C20.3417 23.9362 17.581 25.0155 14.9826 25.0155Z" fill="white"/>
</svg>
